# xmcd
#
# Track frame offsets:
#	150
#	10289
#	20928
#	34904
#	45861
#	58262
#	70630
#	83784
#	93955
#	110612
#	122562
#
# Disc length: 1770 seconds
#
# Revision: 1
# Processed by: cddbd v1.5.2PL0 Copyright (c) Steve Scherf et al.
# Submitted via: audiograbber 1.83.01
#
DISCID=8a06e80b
DTITLE=Girls From Petticoat Junction - Sixties Sounds 
DYEAR=2011
DGENRE=Oldies
TTITLE0=If You Could Only Be Me
TTITLE1=Wheeling, West Virginia
TTITLE2=Goodbye Love
TTITLE3=There's Got To Be A Word
TTITLE4=Rain
TTITLE5=I'm So Glad That You Found Me
TTITLE6=Who Needs Memories Of Him
TTITLE7=Up, Up and Away
TTITLE8=Get Together
TTITLE9=Thirty Days Hath September
TTITLE10=Curt Massey_Petticoat Junction
EXTD=
EXTT0=
EXTT1=
EXTT2=
EXTT3=
EXTT4=
EXTT5=
EXTT6=
EXTT7=
EXTT8=
EXTT9=
EXTT10=
PLAYORDER=
